<?xml version="1.0" encoding="utf-8"?>
<!-- Generator: Adobe Illustrator 15.0.2, SVG Export Plug-In . SVG Version: 6.00 Build 0)  -->
<!DOCTYPE svg PUBLIC "-//W3C//DTD SVG 1.1//EN" "http://www.w3.org/Graphics/SVG/1.1/DTD/svg11.dtd">
<svg version="1.1" xmlns="http://www.w3.org/2000/svg" xmlns:xlink="http://www.w3.org/1999/xlink" x="0px" y="0px" width="800px"
	 height="600px" viewBox="0 0 800 600" enable-background="new 0 0 800 600" xml:space="preserve">
<g id="content">
	<g>
		<g>
			<path d="M152.234375,362.2353516c0.3916016,85.4277344,77.7539063,149.4042969,149.8212891,180.7216797
				c37.2451172,16.1855469,77.9541016,25.7080078,118.6865234,23.0898438
				c48.4404297-3.1123047,98.7705078-15.8603516,136.6943359-47.5517578
				c26.8300781-22.421875,44.3427734-53.6005859,61.2548828-83.6220703
				c8.7089844-15.4609375,17.3232422-30.9589844,26.0146484-46.4316406
				c7.9853516-14.2148438,16.1611328-29.0585938,19.2138672-45.2460938c0.2470703-1.3076172-2.390625-0.9882813-2.6113281,0.1855469
				c-2.5087891,13.2988281-8.6757813,25.5908203-15.0292969,37.4179688
				c-6.3261719,11.7783203-12.6904297,23.7294922-19.4707031,35.2441406
				c-15.1982422,25.8066406-28.5947266,52.7646484-47.3037109,76.3154297
				c-16.6601563,20.9716797-37.1357422,37.2324219-61.3242188,48.7236328
				c-23.4912109,11.1601563-49.1503906,17.421875-74.8408203,20.8515625
				c-21.6884766,2.8945313-43.3378906,3.625-65.0507813,0.7050781c-21.0292969-2.8291016-41.625-8.5517578-61.4492188-16.0419922
				c-41.3374023-15.6181641-80.2231445-39.9130859-110.9462891-71.8085938
				c-29.2861328-30.4042969-50.8496094-69.7099609-51.046875-112.7382813
				C154.840332,360.6757813,152.2290039,361.0537109,152.234375,362.2353516L152.234375,362.2353516z"/>
		</g>
	</g>
	<g>
		<g>
			<path d="M659.3974609,345.3955078c-106.9453125,53.2607422-229.1865234,71.6425781-347.8164063,64.9785156
				c-53.1391602-2.9853516-111.2543945-12.0957031-155.6772461-43.4970703
				c-0.7426758-0.5253906-3.1054688,0.5478516-2.0341797,1.3046875
				c41.1704102,29.1025391,93.9638672,38.71875,143.234375,42.8154297
				c56.5053711,4.6992188,114.2983398,2.1826172,170.3989258-5.6816406
				c66.9111328-9.3798828,132.4023438-28.5986328,192.9414063-58.7480469
				C662.0390625,345.7734375,660.5800781,344.8066406,659.3974609,345.3955078L659.3974609,345.3955078z"/>
		</g>
	</g>
	<g>
		<g>
			<path d="M152.1386719,363.34375c5.2075195-15.3261719,26.515625-19.3242188,40.3017578-21.6728516
				c18.2563477-3.1113281,36.9121094-3.5839844,55.3886719-3.8964844
				c56.6010742-0.9570313,113.15625-1.7851563,169.7714844-1.7851563c40.2529297,0,80.5068359,0,120.7597656,0
				c20.0927734,0,39.8740234,1.3085938,59.7724609,4.1445313c19.4882813,2.7763672,38.8330078,6.4716797,58.3164063,9.2832031
				c0.8818359,0.1269531,3.0439453-1.2695313,1.5546875-1.484375
				c-29.9072266-4.3144531-59.5439453-10.5751953-89.7285156-12.7597656
				c-16.1894531-1.1708984-32.4707031-0.7480469-48.6904297-0.7480469c-16.2705078,0-32.5400391,0-48.8105469,0
				c-65.8769531,0-131.7773438-0.4267578-197.6401367,1.1914063c-23.4345703,0.5751953-47.0249023,0.3994141-70.3383789,3.0957031
				c-11.6855469,1.3515625-23.5175781,3.4638672-34.4506836,7.9355469
				c-7.9643555,3.2578125-15.9038086,8.4912109-18.7905273,16.9873047
				C149.2270508,364.5986328,151.8261719,364.2636719,152.1386719,363.34375L152.1386719,363.34375z"/>
		</g>
	</g>
	<g>
		<g>
			<path fill="#4D4D4D" d="M239.8671875,433.5166016c9.1665039,2.0830078,18.3745117,3.9833984,27.6181641,5.6923828
				c0.0507813,1.953125,0.0751953,2.9277344,0.1259766,4.8808594c-8.3842773-1.5742188-12.5683594-2.4257813-20.9145508-4.2587891
				c0.1835938,5.9277344,0.2758789,8.8916016,0.4594727,14.8183594c7.6821289,1.7519531,11.5322266,2.5742188,19.2495117,4.1054688
				c0.0507813,1.9248047,0.0766602,2.8886719,0.1274414,4.8134766c-7.7089844-1.5507813-11.5561523-2.3837891-19.2294922-4.1552734
				c0.25,8.0712891,0.3745117,12.1064453,0.625,20.1777344c-2.6459961-0.6416016-3.9667969-0.9707031-6.6074219-1.6386719
				C240.8354492,463.140625,240.3515625,448.328125,239.8671875,433.5166016z"/>
			<path fill="#4D4D4D" d="M275.375,463.4130859c-0.0932617-3.8261719-0.2485352-7.1289063-0.5512695-10.1904297
				c2.347168,0.4257813,3.5205078,0.6347656,5.8701172,1.0400391c0.1821289,2.6054688,0.2729492,3.9091797,0.4545898,6.515625
				c0.0913086,0.015625,0.137207,0.0244141,0.2285156,0.0400391c1.5756836-4.0820313,5.6362305-6.1533203,10.1459961-5.4501953
				c0.6889648,0.1074219,1.2260742,0.2587891,1.8383789,0.4199219c0.0463867,2.2490234,0.0698242,3.3740234,0.1162109,5.6230469
				c-0.6904297-0.2431641-1.378418-0.3505859-2.2944336-0.4970703c-4.734375-0.7558594-8.0634766,1.7919922-8.8310547,6.0449219
				c-0.1396484,0.7724609-0.1845703,1.7783203-0.1630859,2.7207031c0.1591797,6.9511719,0.2373047,10.4257813,0.3969727,17.3769531
				c-2.6689453-0.5039063-4.0009766-0.7607422-6.6660156-1.2910156
				C275.7016602,476.8242188,275.5927734,472.3535156,275.375,463.4130859z"/>
			<path fill="#4D4D4D" d="M331.5146484,485.3183594c0.050293,3.5224609,0.1689453,6.5673828,0.4350586,9.21875
				c-2.3862305-0.2734375-3.5776367-0.4179688-5.9619141-0.7128906c-0.1855469-2.1953125-0.2807617-3.2900391-0.4663086-5.484375
				c-0.0610352-0.0078125-0.0917969-0.0117188-0.152832-0.0195313c-1.6420898,2.4814453-5.5615234,5.5-12.1196289,4.5625
				c-5.7954102-0.828125-12.7783203-4.8623047-13.0009766-16.3496094
				c-0.1489258-7.6943359-0.222168-11.5400391-0.3710938-19.2353516c2.6943359,0.3876953,4.0419922,0.5732422,6.7387695,0.9345703
				c0.1323242,7.2851563,0.1967773,10.9267578,0.3291016,18.2109375c0.1137695,6.2744141,2.4023438,10.9277344,8.434082,11.7539063
				c4.5039063,0.6171875,7.581543-1.8476563,8.7753906-4.4199219c0.3598633-0.7753906,0.5830078-1.8525391,0.5654297-3.0224609
				c-0.1240234-8.1494141-0.1845703-12.2246094-0.3085938-20.3740234c2.703125,0.2910156,4.0546875,0.4296875,6.7597656,0.6943359
				C331.3081055,470.7724609,331.3764648,475.6220703,331.5146484,485.3183594z"/>
			<path fill="#4D4D4D" d="M349.8256836,453.171875c0.0244141,2.0917969-1.574707,3.6582031-4.2695313,3.4589844
				c-2.4633789-0.1816406-4.1000977-1.9775391-4.1264648-4.0605469s1.6464844-3.6894531,4.1899414-3.5126953
				C348.0864258,449.2294922,349.8007813,451.0107422,349.8256836,453.171875z M342.8198242,495.6962891
				c-0.1416016-11.2050781-0.2832031-22.4101563-0.4243164-33.6152344c2.7080078,0.2207031,4.0629883,0.3251953,6.7714844,0.5185547
				c0.1298828,11.2431641,0.262207,22.4853516,0.3945313,33.7285156
				C346.8642578,496.0878906,345.5161133,495.9628906,342.8198242,495.6962891z"/>
			<path fill="#4D4D4D" d="M368.4902344,455.5507813c0.0307617,3.265625,0.0458984,4.8974609,0.0766602,8.1630859
				c3.8823242,0.1689453,5.8251953,0.2421875,9.7084961,0.3564453c0.0161133,1.8955078,0.0219727,2.8427734,0.0380859,4.7382813
				c-3.8818359-0.1230469-5.8217773-0.2021484-9.7021484-0.3798828c0.0693359,7.3466797,0.1044922,11.0214844,0.1738281,18.3681641
				c0.0400391,4.2236328,1.3686523,6.7001953,5.1328125,6.8925781c1.84375,0.0947266,2.9169922,0.0029297,3.9135742-0.234375
				c0.1391602,1.9003906,0.2075195,2.8496094,0.3466797,4.7509766c-1.3022461,0.3623047-3.3710938,0.6855469-5.980957,0.5380859
				c-3.1479492-0.1777344-5.7094727-1.3291016-7.3164063-3.0498047c-1.8618164-1.9931641-2.659668-5.0839844-2.7001953-9.0820313
				c-0.0751953-7.4072266-0.1132813-11.1123047-0.1884766-18.5195313c-2.309082-0.1279297-3.4638672-0.1933594-5.7719727-0.3408203
				c-0.0205078-1.8740234-0.0288086-2.8134766-0.0493164-4.6875c2.3095703,0.1416016,3.4628906,0.2089844,5.7729492,0.3310547
				c-0.0258789-2.5253906-0.0380859-3.7880859-0.0639648-6.3134766
				C364.5234375,456.484375,365.8452148,456.1787109,368.4902344,455.5507813z"/>
			<path fill="#4D4D4D" d="M401.8027344,491.4042969c3.0126953,1.8154297,7.3271484,3.2050781,11.9433594,3.1757813
				c6.8457031-0.0439453,10.8291016-3.5546875,10.8037109-8.4746094c-0.0224609-4.4863281-2.8271484-7.0996094-9.828125-9.390625
				c-8.4394531-2.7626953-13.7539063-6.9140625-13.7978516-13.6367188
				c-0.0493164-7.5097656,6.6289063-13.1171875,16.7294922-13.4667969
				c5.2431641-0.1816406,9.1787109,0.7822266,11.4189453,1.9042969c-0.7294922,2.0966797-1.0947266,3.1435547-1.8242188,5.234375
				c-1.6220703-0.8701172-5.0966797-2.0878906-9.7978516-1.9384766c-7.0917969,0.2246094-9.7666016,4.1884766-9.7470703,7.4892578
				c0.0273438,4.5214844,3.2021484,6.7363281,10.3759766,9.1542969c8.7919922,2.9628906,13.2011719,6.7402344,13.2363281,13.9277344
				c0.0361328,7.5498047-5.7753906,14.4130859-18.0019531,14.4521484c-4.9980469,0.015625-10.46875-1.4746094-13.2480469-3.2304688
				C400.7587891,494.5273438,401.1083984,493.4863281,401.8027344,491.4042969z"/>
			<path fill="#4D4D4D" d="M466.6933594,488.21875c0.0126953,3.1025391,0.1787109,6.1191406,0.5722656,8.5263672
				c-2.4257813,0.1982422-3.6376953,0.2939453-6.0644531,0.4707031c-0.2226563-1.7822266-0.3320313-2.6728516-0.5546875-4.4541016
				c-0.0917969,0.0068359-0.140625,0.0097656-0.2324219,0.0166016c-2.0625,2.953125-6.046875,5.7294922-11.3486328,6.0205078
				c-7.5302734,0.4130859-11.4570313-4.5556641-11.4208984-9.59375
				c0.0771484-10.8857422,13.5673828-14.3203125,22.3095703-14.5859375c-0.0009766-0.2939453,0.0009766-0.4404297,0-0.734375
				c-0.0117188-2.8720703-0.9121094-8.0908203-8.4892578-7.4912109c-3.5185547,0.2783203-7.1455078,1.4501953-9.7539063,3.2832031
				c-0.6230469-1.6855469-0.9384766-2.5302734-1.5615234-4.2148438c3.0693359-2.0029297,7.6044922-3.5488281,12.2949219-3.9150391
				c11.3789063-0.8886719,14.1669922,6.2128906,14.1953125,13.3027344
				C466.6611328,480.1972656,466.671875,482.8710938,466.6933594,488.21875z M460.1308594,479.1005859
				c-7.3769531,0.4453125-15.7548828,2.1796875-15.7246094,9.0478516c0.0185547,4.2382813,2.9472656,5.9912109,6.328125,5.7890625
				c4.9179688-0.2929688,8.1347656-3.5058594,9.1201172-6.5664063c0.2373047-0.7353516,0.3017578-1.4970703,0.2998047-2.0869141
				C460.1445313,482.8105469,460.140625,481.5742188,460.1308594,479.1005859z"/>
			<path fill="#4D4D4D" d="M477.4208984,443.0976563c2.6992188-0.3310547,4.0449219-0.5048828,6.7412109-0.8623047
				c0.0712891,17.6328125,0.1455078,35.2646484,0.2167969,52.8974609c-2.6982422,0.2880859-4.0498047,0.4238281-6.75,0.6855469
				C477.5605469,478.2451172,477.4902344,460.6708984,477.4208984,443.0976563z"/>
			<path fill="#4D4D4D" d="M521.6494141,481.3203125c0.015625,3.1855469,0.1845703,6.2695313,0.578125,8.7109375
				c-2.4091797,0.3925781-3.6142578,0.5810547-6.0263672,0.9521484c-0.2226563-1.8134766-0.3339844-2.71875-0.5566406-4.53125
				c-0.0917969,0.0146484-0.1367188,0.0214844-0.2285156,0.0361328c-2.046875,3.1933594-6.0078125,6.3574219-11.2841797,7.0722656
				c-7.4931641,1.015625-11.4130859-3.7861328-11.3681641-8.9550781
				c0.0966797-11.0039063,12.9921875-15.6806641,22.1806641-16.7324219
				c-0.0009766-0.3017578-0.0019531-0.453125-0.0029297-0.7548828c-0.0136719-2.9492188-0.90625-8.2412109-8.4345703-7.0341797
				c-3.4931641,0.5605469-7.0976563,2.0458984-9.6914063,4.1337891c-0.6191406-1.6835938-0.9335938-2.5253906-1.5527344-4.2080078
				c3.0517578-2.2988281,7.5585938-4.2412109,12.2158203-4.9824219c11.2978516-1.7988281,14.0644531,5.2822266,14.1015625,12.5625
				C521.6074219,473.0810547,521.6220703,475.8291016,521.6494141,481.3203125z M515.1171875,472.4609375
				c-7.3242188,1.03125-15.6533203,3.4716797-15.6230469,10.5253906c0.0185547,4.3535156,2.9355469,5.9238281,6.2988281,5.4511719
				c4.8925781-0.6865234,8.0839844-4.2333984,9.0625-7.4599609c0.234375-0.7744141,0.2958984-1.5625,0.2929688-2.1679688
				C515.1367188,476.2695313,515.1289063,475.0009766,515.1171875,472.4609375z"/>
			<path fill="#4D4D4D" d="M563.7304688,426.9228516c0.1162109,15.0898438,0.2314453,30.1787109,0.3476563,45.2685547
				c0.0253906,3.328125,0.2070313,7.0859375,0.3779297,9.6054688c-2.3583984,0.5361328-3.5400391,0.7988281-5.9023438,1.3144531
				c-0.1396484-2.5664063-0.2089844-3.8496094-0.3486328-6.4160156c-0.0908203,0.0205078-0.1367188,0.0302734-0.2275391,0.0507813
				c-1.9365234,4.5996094-6.3095703,8.7070313-12.3076172,9.8945313
				c-8.8828125,1.7587891-15.7890625-4.6669922-15.9169922-15.7900391
				c-0.1181641-10.2890625,6.0693359-20.7080078,16.3544922-23.0996094
				c5.5820313-1.2978516,9.3964844,0.5869141,11.0791016,3.1318359c0.0605469-0.0136719,0.0888672-0.0224609,0.1494141-0.0361328
				c-0.0644531-8.9189453-0.0947266-13.3759766-0.1591797-22.2949219
				C559.8007813,427.9130859,561.1123047,427.5878906,563.7304688,426.9228516z M557.4111328,461.1845703
				c-0.0058594-0.8486328-0.1083984-1.9990234-0.3222656-2.7851563c-1.0664063-3.9248047-4.6630859-6.7177734-9.6601563-5.6318359
				c-6.8896484,1.4980469-10.9599609,8.4082031-10.9130859,16.5048828c0.0429688,7.4853516,3.8125,13.0029297,10.9433594,11.5527344
				c4.4765625-0.9101563,8.5341797-4.8876953,9.7148438-10.1611328c0.2177734-0.9746094,0.2910156-1.9179688,0.2832031-2.9980469
				C557.4384766,465.0742188,557.4296875,463.7763672,557.4111328,461.1845703z"/>
		</g>
	</g>
	<g id="g8816_1_" transform="matrix(0.5037505,0,0,0.5037505,-131.28192,171.94644)">
		
			<linearGradient id="path2207_2_" gradientUnits="userSpaceOnUse" x1="2529.3601074" y1="1237.6911621" x2="2542.5961914" y2="1257.5493164" gradientTransform="matrix(-0.4483 0.2298 0.2298 0.4483 1935.3981934 -1245.6029053)">
			<stop  offset="0" style="stop-color:#266000"/>
			<stop  offset="1" style="stop-color:#6EB600"/>
		</linearGradient>
		<path id="path2207_1_" fill="url(#path2207_2_)" stroke="#000000" stroke-width="1.0690299" stroke-linejoin="round" d="
			M1106.5167236-119.5603943l28.7142334,16.0272293l-25.1801758-5.1333694
			c3.1889648,7.1116867,11.0944824,11.8040237,16.8210449,17.6197739
			c-9.8480225-3.1385651-18.3060303-2.2468185-29.7960205-10.143631c0.7502441,6.8577347,5.6586914,11.583992,8.4929199,17.3735733
			c-7.213501-4.9123688-16.6175537-8.70327-19.2481689-15.96035c-1.2717285,8.6451111-11.3096924,15.1946106-19.3566895,22.220993
			c2.1827393-7.3452835,8.7022705-13.8104553,6.3061523-22.0891647
			c-7.9055176,7.0942383-17.5848389,7.9220123-26.4801025,11.5238953c5.4367676-5.1391754,13.9084473-9.7578506,15.833374-15.495079
			c-8.2088623-0.2830353-17.138916-1.9783249-26.8115234-5.1149521L1106.5167236-119.5603943z"/>
		
			<radialGradient id="path2203_2_" cx="1615.607666" cy="359.4166565" r="60.0723076" gradientTransform="matrix(-0.524 0.811 0.449 0.2901 1789.0841064 -1569.4130859)" gradientUnits="userSpaceOnUse">
			<stop  offset="0" style="stop-color:#FF3905"/>
			<stop  offset="0.5" style="stop-color:#DD1C02"/>
			<stop  offset="1" style="stop-color:#6C0000"/>
		</radialGradient>
		<path id="path2203_1_" fill="url(#path2203_2_)" stroke="#000000" stroke-width="1.0690299" d="M1125.5787354-203.7675476
			c11.552002,19.3858185,46.5705566,63.5990601,11.0441895,87.5696259
			c-20.8999023,14.102211-41.024292,5.4968491-41.024292,5.4968491c-22.2316895,12.986557-39.5228271,8.61409-54.3763428-4.3133469
			c0,0-12.2895508-13.9568176-10.015625-29.2754974c2.2788086-15.3157654,15.0211182-46.1818542,15.0211182-46.1818542
			C1071.7443848-233.7380219,1101.220459-251.9761963,1125.5787354-203.7675476L1125.5787354-203.7675476z"/>
		<path id="path2229_1_" fill="#AAD400" stroke="#000000" stroke-width="1.0690299" d="M1099.1791992-128.2995148
			c0,0,2.7004395-3.0939789,2.0471191-6.0997467c-0.6494141-3.0019073-4.6448975-5.9117126-4.6448975-5.9117126
			s-1.3647461,5.0315857-0.715332,8.0344543C1096.5155029-129.275589,1099.1791992-128.2995148,1099.1791992-128.2995148
			L1099.1791992-128.2995148z"/>
		<path id="path2231_1_" fill="#AAD400" stroke="#000000" stroke-width="1.0690299" d="M1080.1131592-112.2703552
			c0,0,1.5625-3.5572968,0.4769287-5.8923187c-1.0855713-2.334053-4.8212891-3.4448624-4.8212891-3.4448624
			s-0.6513672,3.3014069,0.4343262,5.6354599C1077.2906494-113.6360855,1080.1131592-112.2703552,1080.1131592-112.2703552z"/>
		<path id="path2233_1_" fill="#AAD400" stroke="#000000" stroke-width="1.0690299" d="M1067.4910889-128.7987061
			c0,0,0.6882324-3.0997925-0.4710693-5.1750488c-1.1573486-2.0713654-4.1660156-3.121109-4.1660156-3.121109
			s-0.8161621,3.0871887,0.3431396,5.1575928C1064.3583984-129.8620148,1067.4910889-128.7987061,1067.4910889-128.7987061z"/>
		<path id="path2235_1_" fill="#AAD400" stroke="#000000" stroke-width="1.0690299" d="M1084.4943848-137.9013214
			c0,0,1.463623-3.2849274,0.5874023-6.2713013c-0.8742676-2.9873657-4.0961914-5.6732635-4.0961914-5.6732635
			s-1.4655762,3.7007446-0.5893555,6.6881104C1081.2705078-140.171402,1084.4943848-137.9013214,1084.4943848-137.9013214z"/>
		<path id="path2237_1_" fill="#AAD400" stroke="#000000" stroke-width="1.0690299" d="M1136.1169434-122.6165695
			c0,0-2.027832-3.4807205-1.378418-6.2325363c0.6494141-2.7527924,3.9780273-4.7863617,3.9780273-4.7863617
			s1.7563477,3.5960693,1.1049805,6.3527374C1139.170166-124.5299454,1136.1169434-122.6165695,1136.1169434-122.6165695
			L1136.1169434-122.6165695z"/>
		<path id="path2239_1_" fill="#AAD400" stroke="#000000" stroke-width="1.0690299" d="M1115.1414795-117.7187424
			c0,0-2.2623291-2.3960876-2.3225098-5.107193c-0.0600586-2.71595,2.0802002-5.7459488,2.0802002-5.7459488
			s2.9562988,2.6820221,3.0183105,5.3921585C1117.9794922-120.4647446,1115.1414795-117.7187424,1115.1414795-117.7187424
			L1115.1414795-117.7187424z"/>
		<path id="path2241_1_" fill="#AAD400" stroke="#000000" stroke-width="1.0690299" d="M1122.182373-143.6055908
			c0,0,0.9519043-3.826767-0.182251-6.4680786c-1.1340332-2.6432648-4.3463135-4.1039734-4.3463135-4.1039734
			s-1.0100098,3.2548676,0.1241455,5.8971558C1118.9080811-145.636261,1122.182373-143.6055908,1122.182373-143.6055908z"/>
		<path id="path2243_1_" fill="#AAD400" stroke="#000000" stroke-width="1.0690299" d="M1137.8848877-163.9703979
			c0,0-3.822876-1.5440826-5.6529541-4.1282043c-1.8280029-2.5850983-1.6651611-6.2151031-1.6651611-6.2151031
			s3.8770752,0.8452301,5.7052002,3.4303284C1138.1040039-168.2992554,1137.8848877-163.9703979,1137.8848877-163.9703979z"/>
		<path id="path2245_1_" fill="#AAD400" stroke="#000000" stroke-width="1.0690299" d="M1143.6328125-141.1862488
			c0,0-3.7259521-3.0959015-4.4801025-5.7071838c-0.7559814-2.6141663,1.4539795-4.749527,1.4539795-4.749527
			s3.3653564,2.390274,4.123291,5.003479C1145.4841309-144.0291748,1143.6328125-141.1862488,1143.6328125-141.1862488z"/>
		<path id="path4404_1_" fill="#AAD400" stroke="#000000" stroke-width="1.0690299" d="M1094.7921143-160.9035645
			c0,0-2.8438721-2.9611816-2.3398438-5.9892426c0.5040283-3.0299988,4.3521729-6.1297913,4.3521729-6.1297913
			s1.6090088,4.956955,1.1049805,7.9859772C1097.4053955-162.0075836,1094.7921143-160.9035645,1094.7921143-160.9035645z"/>
		<path id="path4406_1_" fill="#AAD400" stroke="#000000" stroke-width="1.0690299" d="M1069.0167236-159.1724091
			c0,0-1.7369385-3.4807129-0.7657471-5.8612976c0.9693604-2.3863983,4.6468506-3.6794281,4.6468506-3.6794281
			s0.814209,3.2694244-0.1589355,5.6519318C1071.7695313-160.6748047,1069.0167236-159.1724091,1069.0167236-159.1724091
			L1069.0167236-159.1724091z"/>
		<path id="path4408_1_" fill="#AAD400" stroke="#000000" stroke-width="1.0690299" d="M1041.6779785-136.5801697
			c0,0-1.4645996-2.813858-0.880127-5.1197968c0.5854492-2.2991638,3.2229004-4.0894318,3.2229004-4.0894318
			s1.5817871,2.7692566,0.9963379,5.074234S1041.6779785-136.5801697,1041.6779785-136.5801697z"/>
		<path id="path4410_1_" fill="#AAD400" stroke="#000000" stroke-width="1.0690299" d="M1123.0760498-186.3561707
			c0,0-3.2800293-1.4742889-4.6157227-4.2891083c-1.3317871-2.8099823-0.7192383-6.9604797-0.7192383-6.9604797
			s3.557251,1.7864075,4.8929443,4.6002502C1123.9677734-190.1965027,1123.0760498-186.3561707,1123.0760498-186.3561707z"/>
		<path id="path4412_1_" fill="#AAD400" stroke="#000000" stroke-width="1.0690299" d="M1051.1342773-156.2257538
			c0,0,2.9680176-2.7217712,3.166748-5.5414429c0.1958008-2.8225708-2.3815918-5.7508087-2.3815918-5.7508087
			s-2.7420654,2.9127197-2.9388428,5.7372437C1048.78479-158.9591675,1051.1342773-156.2257538,1051.1342773-156.2257538
			L1051.1342773-156.2257538z"/>
		<path id="path4414_1_" fill="#AAD400" stroke="#000000" stroke-width="1.0690299" d="M1052.4554443-115.4961548
			c0,0,1.2028809-3.0639267,0.2442627-5.6044388c-0.9586182-2.5385742-4.0767822-4.5498581-4.0767822-4.5498581
			s-1.7427979,3.5912247-0.7841797,6.1317368C1048.7983398-116.9791718,1052.4554443-115.4961548,1052.4554443-115.4961548z"/>
		<path id="path4416_1_" fill="#AAD400" stroke="#000000" stroke-width="1.0690299" d="M1080.5184326-187.2828064
			c0,0-1.1322021-3.7753906-0.1300049-6.4729309c1.0023193-2.6956024,4.1408691-4.3104401,4.1408691-4.3104401
			s1.1669922,3.204483,0.1628418,5.9020233C1083.6879883-189.4714661,1080.5184326-187.2828064,1080.5184326-187.2828064
			L1080.5184326-187.2828064z"/>
		<path id="path4418_1_" fill="#AAD400" stroke="#000000" stroke-width="1.0690299" d="M1061.1345215-202.4803162
			c0,0,3.7434082-1.7253418,5.4454346-4.3957367c1.7021484-2.6752472,1.362793-6.2887573,1.362793-6.2887573
			s-3.8344727,1.0313263-5.5345459,3.7046204C1060.7060547-206.7897949,1061.1345215-202.4803162,1061.1345215-202.4803162
			L1061.1345215-202.4803162z"/>
		<path id="path4420_1_" fill="#AAD400" stroke="#000000" stroke-width="1.0690299" d="M1056.5003662-179.442215
			c0,0,3.5717773-3.2713623,4.1998291-5.9204254c0.6281738-2.6452026-1.6845703-4.6729584-1.6845703-4.6729584
			s-3.2442627,2.5492401-3.873291,5.1992798C1054.5152588-182.1882172,1056.5003662-179.442215,1056.5003662-179.442215z"/>
		<path id="path4440_1_" fill="#AAD400" stroke="#000000" stroke-width="1.0690299" d="M1105.6016846-210.3722839
			c0,0-3.2819824-1.4743042-4.6157227-4.2832947c-1.3337402-2.8148346-0.7192383-6.965332-0.7192383-6.965332
			s3.5592041,1.7893066,4.8909912,4.5992889C1106.4914551-214.2068024,1105.6016846-210.3722839,1105.6016846-210.3722839z"/>
		<path id="path4442_1_" fill="#AAD400" stroke="#000000" stroke-width="1.0690299" d="M1100.9606934-186.8001099
			c0,0-2.8458252-2.2002869-3.4816895-5.2448273c-0.6397705-3.0464783,0.9266357-6.9391479,0.9266357-6.9391479
			s3.041626,2.5715179,3.6794434,5.6170349C1102.7248535-190.3215332,1100.9606934-186.8001099,1100.9606934-186.8001099
			L1100.9606934-186.8001099z"/>
		<path id="path4444_1_" fill="#AAD400" stroke="#000000" stroke-width="1.0690299" d="M1082.6856689-214.6478271
			c0,0-1.7349854-3.4749146-0.7657471-5.8603363c0.9713135-2.3825226,4.6468506-3.6736145,4.6468506-3.6736145
			s0.8122559,3.2655487-0.1589355,5.6461182C1085.4384766-216.150238,1082.6856689-214.6478271,1082.6856689-214.6478271
			L1082.6856689-214.6478271z"/>
		<path id="path4446_1_" fill="#AAD400" stroke="#000000" stroke-width="1.0690299" d="M1112.9508057-167.2010345
			c0,0,0.6901855-3.100769-0.4671631-5.1711731c-1.1612549-2.0752563-4.1699219-3.1259613-4.1699219-3.1259613
			s-0.8122559,3.0871887,0.3470459,5.1624451C1109.8181152-168.2643585,1112.9508057-167.2010345,1112.9508057-167.2010345z"/>
		
			<linearGradient id="path4448_2_" gradientUnits="userSpaceOnUse" x1="2280.3066406" y1="1277.9748535" x2="2332.9020996" y2="1193.5167236" gradientTransform="matrix(-0.4483 0.2298 0.2298 0.4483 1879.1075439 -1222.2613525)">
			<stop  offset="0" style="stop-color:#FFFFFF"/>
			<stop  offset="1" style="stop-color:#FFFFFF;stop-opacity:0"/>
		</linearGradient>
		<path id="path4448_1_" fill="url(#path4448_2_)" d="M1132.5421143-117.0450821
			c13.1862793-6.6784134,19.6630859-26.6041336,14.444458-40.3932571
			c-4.5789795-16.0214081-25.6552734-48.2290192-35.7301025-62.0637054
			c-40.826416-35.5690918,26.0778809,66.7221069-69.0018311,98.3840027
			c8.5133057,10.9006424,23.6429443,16.6708298,37.2537842,12.5174179
			c5.6276855-1.3201675,11.3232422-2.9921951,16.2181396-6.0939255
			C1108.2652588-109.501091,1120.7148438-111.2419357,1132.5421143-117.0450821z"/>
	</g>
	<g id="g4007_1_" transform="matrix(0.5172799,0,0,0.5172799,-132.84555,-86.59383)">
		
			<radialGradient id="path11841_2_" cx="492.4900208" cy="1361.5108643" r="100.9897766" gradientTransform="matrix(-0.3937 0.8205 0.8132001 0.3903 -183.9934387 -357.8215942)" gradientUnits="userSpaceOnUse">
			<stop  offset="0" style="stop-color:#ABC837"/>
			<stop  offset="0.5" style="stop-color:#7BAF30"/>
			<stop  offset="1" style="stop-color:#31560F"/>
		</radialGradient>
		<path id="path11841_1_" fill="url(#path11841_2_)" stroke="#000000" stroke-width="2.37271" d="M911.4058838,533.6066284
			c30.7771606,77.5975342-7.2249146,165.5453491-84.8186646,196.3168335
			c-77.5909424,30.7734375-165.5359497-7.223938-196.3121338-84.8186646
			c-30.7696533-77.5909424,14.8717651-151.6977539,99.9755249-152.9069519
			C797.7451172,431.6422119,880.6362915,456.0185242,911.4058838,533.6066284L911.4058838,533.6066284z"/>
		
			<radialGradient id="path12846_2_" cx="250.844223" cy="407.996521" r="23.4820995" gradientTransform="matrix(0.6446 -0.2515 -0.1105 -0.2832 615.2832642 680.4976807)" gradientUnits="userSpaceOnUse">
			<stop  offset="0" style="stop-color:#1A1A1A"/>
			<stop  offset="1" style="stop-color:#629124;stop-opacity:0"/>
		</radialGradient>
		<path id="path12846_1_" fill="url(#path12846_2_)" d="M760.7417603,493.5174866
			c2.8723755,7.2409668-7.1239624,22.9764099-20.6581421,28.3436584
			c-13.5332642,5.3672485-36.4313965,1.6368408-39.2990723-5.5985107
			c-2.8733521-7.2428284-0.3662109-26.5057983,29.694458-22.8055725
			C749.9015503,473.4247742,757.8712158,486.2821655,760.7417603,493.5174866z"/>
		<path id="path11863_1_" fill="#668000" stroke="#000000" stroke-width="2.05075" d="M730.0211792,503.914032
			c0,0-10.2775879-33.8147583-24.1431274-61.3598633c-2.5099487-4.9906311,9.2496948-2.655304,9.2496948-2.655304
			l18.2510376,62.5973816L730.0211792,503.914032z"/>
		
			<linearGradient id="path13834_2_" gradientUnits="userSpaceOnUse" x1="193.3412781" y1="773.6174927" x2="315.6569824" y2="603.8515015" gradientTransform="matrix(0.4291 -0.1702 -0.1702 -0.4291 687.8701782 873.8049927)">
			<stop  offset="0" style="stop-color:#FFFFFF"/>
			<stop  offset="1" style="stop-color:#FFFFFF;stop-opacity:0"/>
		</linearGradient>
		<path id="path13834_1_" fill="url(#path13834_2_)" d="M772.4890747,474.760437
			c-28.0501099,10.2644043-5.7825928,23.0227051-35.5383911,37.4612427
			c-30.4845581,8.8173218-23.9656982-12.2325439-33.9223633-10.387146
			c-38.8460083,7.2088623-70.7398071,43.8432007-73.1525269,83.617981
			c-7.3353882,72.5484009,43.1210327,122.5942383,105.8250732,143.6582642
			c11.3187866-105.0765991,45.3317871-173.0751953,138.039917-235.1713562
			C835.8595581,465.5126648,797.3751221,463.8088684,772.4890747,474.760437z"/>
		<g id="g3941_1_" transform="matrix(-0.5651637,-0.1707229,-0.1857237,0.614823,1050.9102,312.11414)">
			
				<radialGradient id="path3943_2_" cx="5925.9897461" cy="4354.6538086" r="173.2320557" gradientTransform="matrix(0.0501616 0.0862989 -0.2801455 -0.0797616 1328.0102539 162.9743958)" gradientUnits="userSpaceOnUse">
				<stop  offset="0" style="stop-color:#266000"/>
				<stop  offset="1" style="stop-color:#6EB600"/>
			</radialGradient>
			<path id="path3943_1_" fill="url(#path3943_2_)" stroke="#000000" stroke-width="3.7316298" d="M384.8735657,283.93573
				c-43.8271179-15.9866333-88.9422302,0.3419189-91.1177368,1.1426392l0.4310303,0.477417
				c0,0,85.7879028,17.7139893,130.867981,47.7019958c45.0769958,30.0024719,46.4121094,30.4376831,46.4121094,30.4376831
				l0.2644043-0.6266785l0.1421509,0.0502014c1.60849-5.1080627,2.5711975-12.8964844-4.6744385-18.8065796
				C457.5854187,336.4750671,429.808197,300.3081665,384.8735657,283.93573z"/>
			
				<radialGradient id="path3945_2_" cx="6154.8149414" cy="4525.7446289" r="173.2134094" gradientTransform="matrix(0.0507798 0.0850075 -0.278519 -0.0736798 1331.1871338 157.0229797)" gradientUnits="userSpaceOnUse">
				<stop  offset="0" style="stop-color:#266000"/>
				<stop  offset="1" style="stop-color:#6EB600"/>
			</radialGradient>
			<path id="path3945_1_" fill="url(#path3945_2_)" stroke="#000000" stroke-width="3.7316298" d="M363.8302307,304.9479675
				c-36.1423035-12.5108337-69.6433716-19.3921814-69.6433716-19.3921814l-0.4310303-0.477417
				c-0.0449219,0.0197754-0.3947144,0.1744385-0.3947144,0.1744385s25.1314087,22.104248,73.214386,61.2919312
				c48.076355,39.2027588,103.7428589,20.5595093,103.7428589,20.5595093
				c0.3979492-0.9212341,1.0270386-2.3171692,1.5551453-3.98526l-0.1421509-0.0502014l-0.2644043,0.6266785
				c0,0-1.3351135-0.4352112-46.4121094-30.4376831C408.1510315,322.0143433,385.5112915,312.4544983,363.8302307,304.9479675z"/>
		</g>
	</g>
	<g>
		<path fill="#4D4D4D" d="M678.828125,336.9189453c0,3.6474609-2.8632813,6.5742188-6.4697266,6.5742188
			c-3.6269531,0-6.5322266-2.9267578-6.5322266-6.5742188c0-3.6064453,2.9052734-6.5332031,6.5537109-6.5332031
			C675.9648438,330.3857422,678.828125,333.3125,678.828125,336.9189453z M667.2255859,336.9394531
			c0,2.9912109,2.2695313,5.3447266,5.1123047,5.3447266c2.8203125,0.0214844,5.0898438-2.3535156,5.0898438-5.3447266
			c0-2.96875-2.2695313-5.3447266-5.1113281-5.3447266C669.4951172,331.5947266,667.2255859,333.9707031,667.2255859,336.9394531z
			 M674.8828125,334.8183594c-0.2548828-0.1484375-1.0820313-0.4658203-2.0146484-0.4658203
			c-1.6337891,0-2.6308594,0.9755859-2.6308594,2.6298828c0,1.5478516,1.0400391,2.6513672,2.609375,2.6513672
			c0.8691406,0,1.6542969-0.2128906,2.1210938-0.5097656l0.3183594,1.0820313
			c-0.7431641,0.4882813-1.6972656,0.6787109-2.6308594,0.6787109c-2.4814453,0-3.9023438-1.6757813-3.9023438-3.8388672
			c0-2.4394531,1.9511719-3.9453125,4.1152344-3.9453125c1.0175781,0,2.0566406,0.296875,2.3330078,0.59375L674.8828125,334.8183594
			z"/>
	</g>
	
		<image overflow="visible" width="945" height="378" xlink:href="demo_images/banana.jpg"  transform="matrix(0.0158364 0.2170401 0.22583 -0.0164778 528 93.7880936)">
	</image>
</g>
<g id="frames">
	<polyline id="bowlWithFruits" fill="none" stroke="#000000" stroke-width="6.4136252" stroke-miterlimit="10" points="
		112.9999924,21.0000076 695.7675781,21.0000076 695.7675781,569.8681641 112.9999924,569.8681641 112.9999924,81.9853592 	"/>
	<polyline id="strawberry" fill="none" stroke="#000000" stroke-width="1.2862961" stroke-miterlimit="10" points="
		487.0224609,131.2915192 357.3203125,149.5112457 343.6533203,52.2353592 473.3564453,34.0146561 485.5029297,120.4829178 	"/>
	<polyline id="banana" fill="none" stroke="#000000" stroke-width="2.0007465" stroke-miterlimit="10" points="
		460.0908203,273.7988281 533.9707031,68.2041092 668.0605469,116.3828201 594.1826172,321.9785156 474.9912109,279.1499023 	"/>
	<polyline id="about" fill="none" stroke="#000000" stroke-width="0.3076571" stroke-miterlimit="10" points="
		651.5742188,327.0302734 681.984375,327.0302734 681.984375,351.2333984 651.5742188,351.2333984 651.5742188,329.7197266 	"/>
	<polyline id="apple" fill="none" stroke="#000000" stroke-width="0.7352507" stroke-miterlimit="10" points="
		217.4453125,219.5571442 293.7539063,184.5205231 314.6430664,230.0166168 238.3344727,265.0527344 219.7661133,224.6118317 	"/>
</g>
</svg>
